<svg width="24" height="24" viewBox="0 0 24 24" fill="none" xmlns="http://www.w3.org/2000/svg">
  <circle cx="12" cy="12" r="10" fill="#5865F2"/>
  <path d="M16.992 8.15C16.218 7.802 15.397 7.547 14.542 7.388C14.531 7.386 14.52 7.39 14.512 7.398C14.404 7.589 14.283 7.838 14.198 8.034C13.283 7.887 12.375 7.887 11.476 8.034C11.391 7.834 11.266 7.589 11.157 7.398C11.15 7.39 11.139 7.387 11.127 7.388C10.273 7.547 9.452 7.802 8.677 8.15C8.671 8.152 8.667 8.156 8.663 8.161C6.639 11.2 6.144 14.167 6.39 17.094C6.391 17.102 6.395 17.11 6.402 17.115C7.424 17.867 8.416 18.334 9.389 18.66C9.401 18.664 9.413 18.66 9.421 18.65C9.692 18.291 9.938 17.914 10.152 17.517C10.162 17.498 10.153 17.475 10.132 17.467C9.795 17.338 9.476 17.183 9.169 17.011C9.147 16.999 9.145 16.968 9.165 16.953C9.223 16.911 9.281 16.867 9.337 16.823C9.345 16.816 9.357 16.815 9.367 16.819C11.167 17.627 13.105 17.627 14.88 16.819C14.89 16.815 14.902 16.816 14.91 16.823C14.965 16.867 15.024 16.911 15.081 16.953C15.101 16.968 15.099 16.999 15.077 17.011C14.77 17.185 14.451 17.338 14.115 17.466C14.094 17.475 14.086 17.499 14.095 17.517C14.313 17.914 14.558 18.291 14.824 18.65C14.832 18.66 14.845 18.664 14.856 18.66C15.833 18.334 16.825 17.867 17.847 17.115C17.854 17.11 17.858 17.102 17.859 17.094C18.152 13.714 17.387 10.77 16.004 8.161C16.001 8.156 16.997 8.152 16.992 8.15ZM9.892 15.052C9.125 15.052 8.499 14.361 8.499 13.517C8.499 12.672 9.114 11.982 9.892 11.982C10.677 11.982 11.292 12.679 11.285 13.517C11.285 14.361 10.67 15.052 9.892 15.052ZM13.986 15.052C13.219 15.052 12.593 14.361 12.593 13.517C12.593 12.672 13.208 11.982 13.986 11.982C14.771 11.982 15.386 12.679 15.379 13.517C15.379 14.361 14.771 15.052 13.986 15.052Z" fill="white"/>
</svg> 