<svg width="24" height="24" viewBox="0 0 24 24" fill="none" xmlns="http://www.w3.org/2000/svg">
  <path d="M12 22C17.5228 22 22 17.5228 22 12C22 6.47715 17.5228 2 12 2C6.47715 2 2 6.47715 2 12C2 17.5228 6.47715 22 12 22Z" fill="#1DA1F2"/>
  <path d="M19.6 8.2C19 8.5 18.4 8.6 17.7 8.7C18.4 8.3 18.9 7.7 19.2 6.9C18.5 7.3 17.8 7.6 17 7.7C16.4 7.1 15.5 6.7 14.5 6.7C12.6 6.7 11.1 8.3 11.1 10.2C11.1 10.5 11.1 10.7 11.2 11C8.3 10.8 5.8 9.4 4.1 7.2C3.8 7.7 3.6 8.3 3.6 8.9C3.6 10.1 4.2 11.1 5.1 11.7C4.5 11.7 4 11.5 3.5 11.3V11.4C3.5 13.1 4.7 14.5 6.2 14.8C5.9 14.9 5.6 14.9 5.3 14.9C5.1 14.9 4.9 14.9 4.7 14.8C5.1 16.2 6.4 17.2 7.9 17.2C6.7 18.1 5.2 18.6 3.6 18.6C3.3 18.6 3.1 18.6 2.8 18.5C4.4 19.6 6.2 20.1 8.2 20.1C14.5 20.1 17.9 15 17.9 10.6C17.9 10.4 17.9 10.3 17.9 10.1C18.6 9.7 19.2 9.1 19.6 8.2Z" fill="white"/>
</svg> 