<svg width="24" height="24" viewBox="0 0 24 24" fill="none" xmlns="http://www.w3.org/2000/svg">
  <circle cx="12" cy="12" r="10" fill="#FF0000"/>
  <path d="M16.75 9.75C16.75 9.75 16.625 8.625 16.125 8.125C15.5 7.5 14.75 7.5 14.5 7.5C12.5 7.375 10.5 7.375 10.5 7.375H10.375C10.375 7.375 8.375 7.375 6.375 7.5C6.125 7.5 5.375 7.5 4.75 8.125C4.25 8.625 4.125 9.75 4.125 9.75C4.125 9.75 4 11 4 12.25V13.375C4 14.625 4.125 15.875 4.125 15.875C4.125 15.875 4.25 17 4.75 17.5C5.375 18.125 6.25 18.125 6.625 18.125C7.875 18.25 12 18.25 12 18.25C12 18.25 14 18.25 16 18.125C16.25 18.125 17 18.125 17.625 17.5C18.125 17 18.25 15.875 18.25 15.875C18.25 15.875 18.375 14.625 18.375 13.375V12.25C18.375 11 18.25 9.75 18.25 9.75H16.75ZM10.375 15.125V10.375L14.25 12.75L10.375 15.125Z" fill="white"/>
</svg> 